<svg width="27" height="27" viewBox="0 0 27 27" fill="none" xmlns="http://www.w3.org/2000/svg">
<g clip-path="url(#clip0_211_735)">
<path d="M26.6583 13.4071C26.6583 6.13495 20.7631 0.239746 13.491 0.239746C6.21893 0.239746 0.32373 6.13495 0.32373 13.4071C0.32373 19.9791 5.1388 25.4266 11.4336 26.4144V17.2132H8.09038V13.4071H11.4336V10.5061C11.4336 7.20608 13.3995 5.38323 16.4071 5.38323C17.8473 5.38323 19.3546 5.6404 19.3546 5.6404V8.88079H17.6943C16.0587 8.88079 15.5484 9.89586 15.5484 10.9382V13.4071H19.2003L18.6165 17.2132H15.5484V26.4144C21.8433 25.4266 26.6583 19.9791 26.6583 13.4071Z" fill="#1877F2"/>
<path d="M18.6165 17.2132L19.2002 13.4071H15.5484V10.9382C15.5484 9.8969 16.0586 8.88081 17.6942 8.88081H19.3546V5.64041C19.3546 5.64041 17.8478 5.38324 16.4071 5.38324C13.3994 5.38324 11.4336 7.20609 11.4336 10.5061V13.4071H8.09033V17.2132H11.4336V26.4144C12.7969 26.6277 14.1851 26.6277 15.5484 26.4144V17.2132H18.6165Z" fill="white"/>
</g>
<defs>
<clipPath id="clip0_211_735">
<rect width="26.3346" height="26.3346" fill="white" transform="translate(0.32373 0.239746)"/>
</clipPath>
</defs>
</svg>
