<svg width="27" height="25" viewBox="0 0 27 25" fill="none" xmlns="http://www.w3.org/2000/svg">
<g clip-path="url(#clip0_211_736)">
<path d="M26.4016 12.7211C26.4016 11.9156 26.329 11.1056 26.1742 10.3131H13.7544V14.8766H20.8666C20.5715 16.3484 19.6232 17.6504 18.2346 18.4777V21.4387H22.4778C24.9695 19.3747 26.4016 16.3266 26.4016 12.7211Z" fill="#4285F4"/>
<path d="M13.7544 24.2996C17.3057 24.2996 20.3006 23.2501 22.4826 21.4387L18.2395 18.4777C17.059 19.2005 15.5349 19.6098 13.7593 19.6098C10.3241 19.6098 7.41148 17.5241 6.36641 14.7198H1.98779V17.7723C4.22307 21.774 8.77587 24.2996 13.7544 24.2996V24.2996Z" fill="#34A853"/>
<path d="M6.36137 14.7198C5.80981 13.248 5.80981 11.6543 6.36137 10.1825V7.13004H1.98759C0.120023 10.4786 0.120023 14.4237 1.98759 17.7723L6.36137 14.7198V14.7198Z" fill="#FBBC04"/>
<path d="M13.7544 5.28811C15.6317 5.26199 17.446 5.89773 18.8056 7.06472L22.5649 3.68133C20.1845 1.66958 17.0251 0.563558 13.7544 0.598394C8.77586 0.598394 4.22307 3.12396 1.98779 7.13004L6.36157 10.1825C7.4018 7.37388 10.3193 5.28811 13.7544 5.28811V5.28811Z" fill="#EA4335"/>
</g>
<defs>
<clipPath id="clip0_211_736">
<rect width="26.3346" height="23.7012" fill="white" transform="translate(0.32373 0.597595)"/>
</clipPath>
</defs>
</svg>
