<svg width="157" height="28" viewBox="0 0 157 28" fill="none" xmlns="http://www.w3.org/2000/svg">
<path d="M142.255 0.000190735L145.485 9.38803H155.936L147.481 15.19L150.711 24.5779L142.255 18.7759L133.8 24.5779L137.029 15.19L128.574 9.38803H139.025L142.255 0.000190735Z" fill="#D9D9D9"/>
<path d="M110.288 0.000190735L113.517 9.38803H123.969L115.514 15.19L118.743 24.5779L110.288 18.7759L101.832 24.5779L105.062 15.19L96.6064 9.38803H107.058L110.288 0.000190735Z" fill="#D9D9D9"/>
<path d="M78.3205 0.000190735L81.5502 9.38803H92.0018L83.5463 15.19L86.776 24.5779L78.3205 18.7759L69.8649 24.5779L73.0947 15.19L64.6391 9.38803H75.0907L78.3205 0.000190735Z" fill="#FF9E00" fill-opacity="0.5"/>
<path d="M46.3532 0.000190735L49.5829 9.38803H60.0345L51.579 15.19L54.8087 24.5779L46.3532 18.7759L37.8976 24.5779L41.1274 15.19L32.6718 9.38803H43.1234L46.3532 0.000190735Z" fill="#FF9E00" fill-opacity="0.5"/>
<path d="M14.3854 0L17.6151 9.38784H28.0667L19.6112 15.1898L22.8409 24.5777L14.3854 18.7757L5.92987 24.5777L9.1596 15.1898L0.704071 9.38784H11.1557L14.3854 0Z" fill="#FF9E00" fill-opacity="0.5"/>
</svg>
