<svg width="27" height="27" viewBox="0 0 27 27" fill="none" xmlns="http://www.w3.org/2000/svg">
<path d="M5.625 15.5585C5.625 14.5494 5.625 14.0448 5.84666 13.6141C6.06833 13.1833 6.4789 12.8901 7.30005 12.3035L12.3375 8.70534C12.8989 8.30438 13.1795 8.1039 13.5 8.1039C13.8205 8.1039 14.1011 8.30438 14.6625 8.70534L19.7 12.3035C20.5211 12.8901 20.9317 13.1833 21.1533 13.6141C21.375 14.0448 21.375 14.5494 21.375 15.5585V21.625C21.375 22.5678 21.375 23.0392 21.0821 23.3321C20.7892 23.625 20.3178 23.625 19.375 23.625H7.625C6.68219 23.625 6.21079 23.625 5.91789 23.3321C5.625 23.0392 5.625 22.5678 5.625 21.625V15.5585Z" fill="#2A4157" fill-opacity="0.24"/>
<path d="M3.375 14.0116C3.375 14.2785 3.375 14.4119 3.4591 14.4531C3.54319 14.4942 3.64852 14.4123 3.85918 14.2484L12.2721 7.70502C12.862 7.24625 13.1569 7.01686 13.5 7.01686C13.8431 7.01686 14.138 7.24625 14.7279 7.70502L23.1408 14.2484C23.3515 14.4123 23.4568 14.4942 23.5409 14.4531C23.625 14.4119 23.625 14.2785 23.625 14.0116V13.3532C23.625 12.8728 23.625 12.6326 23.5233 12.4247C23.4216 12.2168 23.232 12.0694 22.8529 11.7745L14.7279 5.45502C14.138 4.99625 13.8431 4.76686 13.5 4.76686C13.1569 4.76686 12.862 4.99625 12.2721 5.45502L4.14712 11.7745C3.76795 12.0694 3.57837 12.2168 3.47668 12.4247C3.375 12.6326 3.375 12.8728 3.375 13.3532V14.0116Z" fill="#222222"/>
<path d="M14.3125 16.875H12.6875C11.5829 16.875 10.6875 17.7704 10.6875 18.875V23.475C10.6875 23.5578 10.7547 23.625 10.8375 23.625H16.1625C16.2453 23.625 16.3125 23.5578 16.3125 23.475V18.875C16.3125 17.7704 15.4171 16.875 14.3125 16.875Z" fill="#222222"/>
<rect x="18" y="5.625" width="2.25" height="4.5" rx="0.5" fill="#222222"/>
</svg>
