<svg width="27" height="27" viewBox="0 0 27 27" fill="none" xmlns="http://www.w3.org/2000/svg">
<path d="M4.71289 11.0794C4.71289 10.628 4.71289 10.4022 4.85313 10.262C4.99337 10.1218 5.21909 10.1218 5.67051 10.1218H21.3117C21.7631 10.1218 21.9888 10.1218 22.1291 10.262C22.2693 10.4022 22.2693 10.628 22.2693 11.0794V21.8526C22.2693 22.5298 22.2693 22.8684 22.0589 23.0787C21.8486 23.2891 21.51 23.2891 20.8329 23.2891H6.14932C5.47218 23.2891 5.13361 23.2891 4.92325 23.0787C4.71289 22.8684 4.71289 22.5298 4.71289 21.8526V11.0794Z" fill="#2A4157" fill-opacity="0.24" stroke="#222222" stroke-width="0.287287"/>
<path d="M17.8803 9.02449V5.93217C17.8803 4.8036 17.8803 4.23932 17.5297 3.88872C17.1791 3.53812 16.6148 3.53812 15.4862 3.53812H11.4961C10.3675 3.53812 9.80325 3.53812 9.45265 3.88872C9.10205 4.23932 9.10205 4.8036 9.10205 5.93217V9.02449" stroke="#222222" stroke-width="0.287287" stroke-linecap="round"/>
<circle cx="13.4909" cy="16.7054" r="2.19455" fill="#222222"/>
</svg>
