<svg width="27" height="28" viewBox="0 0 27 28" fill="none" xmlns="http://www.w3.org/2000/svg">
<circle cx="13.4912" cy="13.857" r="9.87548" fill="#2A4157" fill-opacity="0.24"/>
<path d="M10.199 11.6624L14.4105 14.8211C14.5107 14.8962 14.6518 14.8814 14.7343 14.7872L22.269 6.17606" stroke="#222222" stroke-width="0.287287" stroke-linecap="round"/>
<path d="M23.3667 13.857C23.3667 15.9204 22.7203 17.932 21.5185 19.6092C20.3166 21.2865 18.6195 22.5451 16.6656 23.2084C14.7117 23.8716 12.5991 23.9062 10.6245 23.3072C8.64994 22.7083 6.91259 21.5058 5.65646 19.8688C4.40033 18.2318 3.68852 16.2424 3.62101 14.1801C3.5535 12.1178 4.13367 10.0861 5.28004 8.37046C6.42641 6.6548 8.0814 5.34131 10.0126 4.61447C11.9437 3.88763 14.0541 3.78395 16.0472 4.31801" stroke="#222222" stroke-width="0.287287" stroke-linecap="round"/>
</svg>
